# xmcd
#
# Track frame offsets:
#	150
#	14318
#	27556
#	40343
#	59768
#	73943
#	85709
#	99321
#	114078
#	127390
#	143084
#	149881
#
# Disc length: 2505 seconds
#
# Revision: 0
# Processed by: cddbd v1.5.2PL0 Copyright (c) Steve Scherf et al.
# Submitted via: EasyCDDAExtractor 2011.0.0.0
#
DISCID=b609c70c
DTITLE=Wolfman Jack with Clas Yngström - Together
DYEAR=2011
DGENRE=Blues
TTITLE0=Like it This Way
TTITLE1=My Rocket 88
TTITLE2=Anywhere it Goes
TTITLE3=New Orleans
TTITLE4=Roll That Dice
TTITLE5=Carrie Ann
TTITLE6=Rollin' Man
TTITLE7=Toes Up, Head Down
TTITLE8=Gotta Move
TTITLE9=Dig My Blues
TTITLE10=Big, Fat, White Man
TTITLE11=Be Careful With a Fool
EXTD=
EXTT0=
EXTT1=
EXTT2=
EXTT3=
EXTT4=
EXTT5=
EXTT6=
EXTT7=
EXTT8=
EXTT9=
EXTT10=
EXTT11=
PLAYORDER=
